<svg id="Large_Logo" data-name="Large Logo" xmlns="http://www.w3.org/2000/svg" width="139.283" height="63.523" viewBox="0 0 139.283 63.523">
  <g id="Group_867" data-name="Group 867" transform="translate(64.617)">
    <g id="Group_866" data-name="Group 866" transform="translate(0)">
      <path id="Path_433" data-name="Path 433" d="M880.833,395.441V379.813h2.9V392.65H891.1v2.791Z" transform="translate(-880.833 -379.813)" fill="#10214d"/>
      <path id="Path_434" data-name="Path 434" d="M939.241,401.787a6.043,6.043,0,0,1,8.328,0,6.332,6.332,0,0,1,0,8.506,6.043,6.043,0,0,1-8.328,0,6.332,6.332,0,0,1,0-8.506Zm2.02,6.664a2.919,2.919,0,0,0,4.287,0,3.774,3.774,0,0,0,0-4.823,2.919,2.919,0,0,0-4.287,0,3.775,3.775,0,0,0,0,4.823Z" transform="translate(-926.368 -396.105)" fill="#10214d"/>
      <path id="Path_435" data-name="Path 435" d="M1006.235,411.733V400.347h2.568l.223,1.116h.112a3.462,3.462,0,0,1,.759-.67,4.523,4.523,0,0,1,5.571.659,4.835,4.835,0,0,1,1.261,3.472v6.809h-2.791v-6.586a2.457,2.457,0,1,0-4.911,0v6.586Z" transform="translate(-981.422 -396.105)" fill="#10214d"/>
      <path id="Path_436" data-name="Path 436" d="M1077.7,395.441l-.223-1.228h-.112a3.455,3.455,0,0,1-.8.737,4.48,4.48,0,0,1-2.545.714,4.871,4.871,0,0,1-3.739-1.641,6.818,6.818,0,0,1,0-8.551,4.871,4.871,0,0,1,3.739-1.641,4.365,4.365,0,0,1,2.456.737,3.3,3.3,0,0,1,.782.715h.112v-5.47h2.791v15.628Zm-5.336-3.226a2.938,2.938,0,0,0,4.2,0,4.189,4.189,0,0,0,0-4.934,2.938,2.938,0,0,0-4.2,0,4.187,4.187,0,0,0,0,4.934Z" transform="translate(-1031.581 -379.813)" fill="#10214d"/>
      <path id="Path_437" data-name="Path 437" d="M1138.164,401.787a6.043,6.043,0,0,1,8.328,0,6.332,6.332,0,0,1,0,8.506,6.043,6.043,0,0,1-8.328,0,6.332,6.332,0,0,1,0-8.506Zm2.021,6.664a2.918,2.918,0,0,0,4.287,0,3.774,3.774,0,0,0,0-4.823,2.919,2.919,0,0,0-4.287,0,3.774,3.774,0,0,0,0,4.823Z" transform="translate(-1085.931 -396.105)" fill="#10214d"/>
      <path id="Path_438" data-name="Path 438" d="M1205.159,411.733V400.347h2.568l.223,1.116h.112a3.459,3.459,0,0,1,.759-.67,4.523,4.523,0,0,1,5.57.659,4.836,4.836,0,0,1,1.261,3.472v6.809h-2.791v-6.586a2.457,2.457,0,1,0-4.912,0v6.586Z" transform="translate(-1140.986 -396.105)" fill="#10214d"/>
      <path id="Path_439" data-name="Path 439" d="M880.833,504.939V489.311h7.033a4.674,4.674,0,0,1,3.561,1.429,6.071,6.071,0,0,1,0,7.636,4.673,4.673,0,0,1-3.561,1.429h-4.13v5.135Zm2.9-7.926h4.019a1.968,1.968,0,0,0,1.541-.647,3.107,3.107,0,0,0,0-3.617,1.969,1.969,0,0,0-1.541-.648h-4.019Z" transform="translate(-880.833 -467.645)" fill="#10214d"/>
      <path id="Path_440" data-name="Path 440" d="M949.718,517.559V510.75h2.791v6.586a2.457,2.457,0,1,0,4.912,0V510.75h2.791v11.386h-2.568l-.223-1.116h-.112a3.475,3.475,0,0,1-.759.67,4.523,4.523,0,0,1-5.57-.659A4.833,4.833,0,0,1,949.718,517.559Z" transform="translate(-936.088 -484.842)" fill="#10214d"/>
      <path id="Path_441" data-name="Path 441" d="M1015.827,504.939V489.311h2.791v5.47h.112a3.294,3.294,0,0,1,.781-.714,4.3,4.3,0,0,1,2.456-.737,4.871,4.871,0,0,1,3.739,1.641,6.818,6.818,0,0,1,0,8.551,4.871,4.871,0,0,1-3.739,1.641,4.48,4.48,0,0,1-2.545-.714,3.46,3.46,0,0,1-.8-.737h-.112l-.223,1.228Zm3.594-3.226a2.938,2.938,0,0,0,4.2,0,4.187,4.187,0,0,0,0-4.934,2.938,2.938,0,0,0-4.2,0,4.188,4.188,0,0,0,0,4.934Z" transform="translate(-989.116 -467.645)" fill="#10214d"/>
      <path id="Path_442" data-name="Path 442" d="M1083.775,504.939V489.311h2.791v15.628Z" transform="translate(-1043.62 -467.645)" fill="#10214d"/>
      <path id="Path_443" data-name="Path 443" d="M1110.473,490.862v-2.679h3.014v2.679Zm.111,13.172V492.648h2.791v11.386Z" transform="translate(-1065.035 -466.74)" fill="#10214d"/>
      <path id="Path_444" data-name="Path 444" d="M1143.193,516.989h2.791a6.271,6.271,0,0,1-.5,1.474,6.648,6.648,0,0,1-.949,1.418,4.336,4.336,0,0,1-1.619,1.138,5.759,5.759,0,0,1-2.288.435,5.6,5.6,0,0,1-4.164-1.663,6.333,6.333,0,0,1,0-8.506,5.6,5.6,0,0,1,4.164-1.663,5.757,5.757,0,0,1,2.288.435,4.4,4.4,0,0,1,1.619,1.128,6.677,6.677,0,0,1,.949,1.384,6.02,6.02,0,0,1,.5,1.407h-2.791a2.527,2.527,0,0,0-2.567-1.786,2.81,2.81,0,0,0-2.143.938,3.773,3.773,0,0,0,0,4.822,2.81,2.81,0,0,0,2.143.938A2.474,2.474,0,0,0,1143.193,516.989Z" transform="translate(-1084.566 -483.937)" fill="#10214d"/>
      <path id="Path_445" data-name="Path 445" d="M880.833,614.436V598.808h2.9v12.838H891.1v2.791Z" transform="translate(-880.833 -555.476)" fill="#10214d"/>
      <path id="Path_446" data-name="Path 446" d="M941.876,600.359V597.68h3.014v2.679Zm.112,13.172V602.145h2.791v11.386Z" transform="translate(-929.798 -554.572)" fill="#10214d"/>
      <path id="Path_447" data-name="Path 447" d="M969.688,614.436V598.808h2.791v5.47h.111a3.3,3.3,0,0,1,.781-.714,4.3,4.3,0,0,1,2.456-.737,4.872,4.872,0,0,1,3.74,1.641,6.819,6.819,0,0,1,0,8.551,4.872,4.872,0,0,1-3.74,1.641,4.479,4.479,0,0,1-2.545-.714,3.452,3.452,0,0,1-.8-.737h-.112l-.223,1.228Zm3.594-3.226a2.938,2.938,0,0,0,4.2,0,4.187,4.187,0,0,0,0-4.934,2.938,2.938,0,0,0-4.2,0,4.189,4.189,0,0,0,0,4.934Z" transform="translate(-952.107 -555.476)" fill="#10214d"/>
      <path id="Path_448" data-name="Path 448" d="M1037.253,631.632V620.246h2.344l.223,1h.112a2.566,2.566,0,0,1,.491-.491,2.492,2.492,0,0,1,1.518-.514h2.233v2.679h-2.009a1.875,1.875,0,0,0-2.121,2.121v6.586Z" transform="translate(-1006.303 -572.673)" fill="#10214d"/>
      <path id="Path_449" data-name="Path 449" d="M1084.108,630.728l-.223-1.116h-.112a3.23,3.23,0,0,1-.781.67,4.536,4.536,0,0,1-2.456.67,4.346,4.346,0,0,1-3-1,3.166,3.166,0,0,1-1.128-2.456,3.45,3.45,0,0,1,1.206-2.768,5.232,5.232,0,0,1,3.483-1.027h2.567v-.223a2.155,2.155,0,0,0-.547-1.541,1.915,1.915,0,0,0-1.462-.581,2.08,2.08,0,0,0-1.4.447,1.661,1.661,0,0,0-.614,1h-2.791a4.076,4.076,0,0,1,1.429-2.612,4.954,4.954,0,0,1,3.371-1.072,4.861,4.861,0,0,1,3.472,1.25,4.091,4.091,0,0,1,1.328,3.1v7.256Zm-.447-4.577v-.335h-2.344q-2.121,0-2.121,1.451a1.308,1.308,0,0,0,.469,1.06,2,2,0,0,0,1.317.391,2.722,2.722,0,0,0,1.976-.681A2.5,2.5,0,0,0,1083.662,626.151Z" transform="translate(-1037.709 -571.768)" fill="#10214d"/>
      <path id="Path_450" data-name="Path 450" d="M1137.335,631.632V620.246h2.344l.223,1h.111a2.575,2.575,0,0,1,.491-.491,2.492,2.492,0,0,1,1.518-.514h2.232v2.679h-2.009a1.875,1.875,0,0,0-2.121,2.121v6.586Z" transform="translate(-1086.582 -572.673)" fill="#10214d"/>
      <path id="Path_451" data-name="Path 451" d="M1179.407,636.1V633.53h2.233a.791.791,0,0,0,.848-.558l.2-.558-4.621-12.168h2.9l2.9,7.7h.447l2.679-7.7h2.9l-4.8,13.619a3.424,3.424,0,0,1-1.128,1.73,3.871,3.871,0,0,1-2.221.5Z" transform="translate(-1119.255 -572.673)" fill="#10214d"/>
    </g>
  </g>
  <path id="Path_452" data-name="Path 452" d="M734.111,568.316V580.5H711.273v-29.69h12.365v17.509Z" transform="translate(-680.207 -516.973)" fill="#10214d"/>
  <path id="Path_453" data-name="Path 453" d="M577.1,506.756v12.181H554.264v-29.69h12.365v17.509Z" transform="translate(-554.264 -467.594)" fill="#10214d"/>
  <g id="Group_869" data-name="Group 869" transform="translate(19.101 0.063)">
    <g id="Group_868" data-name="Group 868" transform="translate(0 0)">
      <path id="Path_454" data-name="Path 454" d="M652.748,412.184h-.081l-1.871-.009V380.13h17.01a12.675,12.675,0,0,1,0,25.35h-4.291C662.384,408.4,659.248,412.184,652.748,412.184Zm1.808-28.295v24.4a6.829,6.829,0,0,0,4.466-2.482,6.537,6.537,0,0,0,1.23-2.518l.264-1.567h7.291a8.916,8.916,0,0,0,0-17.831Z" transform="translate(-650.797 -380.13)" fill="#10214d"/>
    </g>
  </g>
</svg>
