<?xml version="1.0" encoding="UTF-8"?>
<svg id="Large_Logo" xmlns="http://www.w3.org/2000/svg" version="1.1" viewBox="0 0 139.3 63.5">
  <!-- Generator: Adobe Illustrator 29.3.1, SVG Export Plug-In . SVG Version: 2.1.0 Build 151)  -->
  <defs>
    <style>
      .st0 {
        fill: #fff;
      }
    </style>
  </defs>
  <g id="Group_867">
    <g id="Group_866">
      <path id="Path_433" class="st0" d="M64.6,15.6V0h2.9v12.8h7.4v2.8h-10.3Z"/>
      <path id="Path_434" class="st0" d="M77.5,5.7c2.3-2.2,6-2.2,8.3,0,2.2,2.4,2.2,6.1,0,8.5-2.3,2.2-6,2.2-8.3,0-2.2-2.4-2.2-6.1,0-8.5ZM79.5,12.3c1.1,1.2,2.9,1.3,4.1.2,0,0,.1-.1.2-.2,1.2-1.4,1.2-3.4,0-4.8-1.1-1.2-2.9-1.3-4.1-.2,0,0-.1.1-.2.2-1.2,1.4-1.2,3.4,0,4.8Z"/>
      <path id="Path_435" class="st0" d="M89.4,15.6V4.2h2.6l.2,1.1h.1c.2-.3.5-.5.8-.7,1.8-1.1,4.1-.8,5.6.7.9.9,1.3,2.2,1.3,3.5v6.8h-2.8v-6.6c0-1.4-1-2.5-2.4-2.5s-2.5,1-2.5,2.4c0,0,0,.1,0,.2v6.6h-2.8Z"/>
      <path id="Path_436" class="st0" d="M110.7,15.6l-.2-1.2h-.1c-.2.3-.5.5-.8.7-.8.5-1.6.7-2.5.7-1.4,0-2.8-.6-3.7-1.6-2-2.5-2-6.1,0-8.6.9-1.1,2.3-1.7,3.7-1.6.9,0,1.7.3,2.5.7.3.2.6.4.8.7h.1V0h2.8v15.6h-2.5ZM105.4,12.4c1.1,1.2,3,1.2,4.2,0,0,0,0,0,0,0,1.1-1.5,1.1-3.5,0-4.9-1.1-1.2-3-1.2-4.2,0,0,0,0,0,0,0-1.1,1.5-1.1,3.5,0,4.9Z"/>
      <path id="Path_437" class="st0" d="M116.8,5.7c2.3-2.2,6-2.2,8.3,0,2.2,2.4,2.2,6.1,0,8.5-2.3,2.2-6,2.2-8.3,0-2.2-2.4-2.2-6.1,0-8.5ZM118.9,12.3c1.1,1.2,2.9,1.3,4.1.2,0,0,.1-.1.2-.2,1.2-1.4,1.2-3.4,0-4.8-1.1-1.2-2.9-1.3-4.1-.2,0,0-.1.1-.2.2-1.2,1.4-1.2,3.4,0,4.8Z"/>
      <path id="Path_438" class="st0" d="M128.8,15.6V4.2h2.6l.2,1.1h.1c.2-.3.5-.5.8-.7,1.8-1.1,4.1-.8,5.6.7.9.9,1.3,2.2,1.3,3.5v6.8h-2.8v-6.6c0-1.4-1-2.5-2.4-2.5-1.4,0-2.5,1-2.5,2.4,0,0,0,0,0,.1v6.6h-2.8Z"/>
      <path id="Path_439" class="st0" d="M64.6,37.3v-15.6h7c1.3,0,2.6.5,3.6,1.4,1.8,2.2,1.8,5.4,0,7.6-.9,1-2.2,1.5-3.6,1.4h-4.1v5.1h-2.9ZM67.5,29.4h4c.6,0,1.1-.2,1.5-.6.8-1.1.8-2.5,0-3.6-.4-.4-1-.7-1.5-.6h-4v4.9Z"/>
      <path id="Path_440" class="st0" d="M78.2,32.7v-6.8h2.8v6.6c0,1.4,1,2.5,2.4,2.5s2.5-1,2.5-2.4c0,0,0,0,0-.1v-6.6h2.8v11.4h-2.6l-.2-1.1h-.1c-.2.3-.5.5-.8.7-1.8,1.1-4.1.8-5.6-.7-.9-.9-1.3-2.2-1.3-3.5Z"/>
      <path id="Path_441" class="st0" d="M91.3,37.3v-15.6h2.8v5.5h.1c.2-.3.5-.5.8-.7.7-.5,1.6-.7,2.5-.7,1.4,0,2.8.6,3.7,1.6,2,2.5,2,6.1,0,8.6-.9,1.1-2.3,1.7-3.7,1.6-.9,0-1.8-.2-2.5-.7-.3-.2-.6-.5-.8-.7h-.1l-.2,1.2h-2.5ZM94.9,34.1c1.1,1.2,3,1.2,4.2,0,0,0,0,0,0,0,1.1-1.5,1.1-3.5,0-4.9-1.1-1.2-3-1.2-4.2,0,0,0,0,0,0,0-1.1,1.5-1.1,3.5,0,4.9Z"/>
      <path id="Path_442" class="st0" d="M104.8,37.3v-15.6h2.8v15.6h-2.8Z"/>
      <path id="Path_443" class="st0" d="M110.1,24.1v-2.7h3v2.7h-3ZM110.2,37.3v-11.4h2.8v11.4h-2.8Z"/>
      <path id="Path_444" class="st0" d="M123.2,33.1h2.8c-.1.5-.3,1-.5,1.5-.3.5-.6,1-.9,1.4-.4.5-1,.9-1.6,1.1-.7.3-1.5.4-2.3.4-1.6,0-3.1-.6-4.2-1.7-2.2-2.4-2.2-6.1,0-8.5,1.1-1.1,2.6-1.7,4.2-1.7.8,0,1.6.1,2.3.4.6.2,1.2.6,1.6,1.1.4.4.7.9.9,1.4.2.4.4.9.5,1.4h-2.8c-.3-1.1-1.4-1.9-2.6-1.8-.8,0-1.6.3-2.1.9-1.2,1.4-1.2,3.4,0,4.8.5.6,1.3,1,2.1.9,1.2,0,2.3-.7,2.6-1.9Z"/>
      <path id="Path_445" class="st0" d="M64.6,59v-15.6h2.9v12.8h7.4v2.8h-10.3Z"/>
      <path id="Path_446" class="st0" d="M76.7,45.8v-2.7h3v2.7h-3ZM76.8,59v-11.4h2.8v11.4h-2.8Z"/>
      <path id="Path_447" class="st0" d="M82.2,59v-15.6h2.8v5.5h.1c.2-.3.5-.5.8-.7.7-.5,1.6-.7,2.5-.7,1.4,0,2.8.6,3.7,1.6,2,2.5,2,6.1,0,8.6-.9,1.1-2.3,1.7-3.7,1.6-.9,0-1.8-.2-2.5-.7-.3-.2-.6-.5-.8-.7h-.1l-.2,1.2h-2.5ZM85.8,55.7c1.1,1.2,3,1.2,4.2,0,0,0,0,0,0,0,1.1-1.5,1.1-3.5,0-4.9-1.1-1.2-3-1.2-4.2,0,0,0,0,0,0,0-1.1,1.5-1.1,3.5,0,4.9Z"/>
      <path id="Path_448" class="st0" d="M95.6,59v-11.4h2.3l.2,1h.1c.1-.2.3-.4.5-.5.4-.3,1-.5,1.5-.5h2.2v2.7h-2c-1-.1-2,.6-2.1,1.6,0,.2,0,.4,0,.5v6.6h-2.8Z"/>
      <path id="Path_449" class="st0" d="M111,59l-.2-1.1h-.1c-.2.3-.5.5-.8.7-.7.5-1.6.7-2.5.7-1.1,0-2.2-.3-3-1-.7-.6-1.1-1.5-1.1-2.5,0-1.1.4-2.1,1.2-2.8,1-.7,2.2-1.1,3.5-1h2.6v-.2c0-.6-.2-1.1-.5-1.5-.4-.4-.9-.6-1.5-.6-.5,0-1,.1-1.4.4-.3.2-.5.6-.6,1h-2.8c.1-1,.6-2,1.4-2.6,1-.8,2.2-1.1,3.4-1.1,1.3,0,2.5.4,3.5,1.2.9.8,1.4,1.9,1.3,3.1v7.3h-2.3ZM110.6,54.4v-.3h-2.3c-1.4,0-2.1.5-2.1,1.5,0,.4.2.8.5,1.1.4.3.8.4,1.3.4.7,0,1.4-.2,2-.7.5-.5.7-1.2.7-1.9h0Z"/>
      <path id="Path_450" class="st0" d="M115.4,59v-11.4h2.3l.2,1h.1c.1-.2.3-.4.5-.5.4-.3,1-.5,1.5-.5h2.2v2.7h-2c-1-.1-2,.6-2.1,1.6,0,.2,0,.4,0,.5v6.6h-2.8Z"/>
      <path id="Path_451" class="st0" d="M124.8,63.4v-2.6h2.2c.4,0,.7-.2.8-.6l.2-.6-4.6-12.2h2.9l2.9,7.7h.4l2.7-7.7h2.9l-4.8,13.6c-.2.7-.6,1.3-1.1,1.7-.7.4-1.4.6-2.2.5h-2.3Z"/>
    </g>
  </g>
  <path id="Path_452" class="st0" d="M53.9,51.3v12.2h-22.8v-29.7h12.4v17.5h10.5Z"/>
  <path id="Path_453" class="st0" d="M22.8,39.2v12.2H0v-29.7h12.4v17.5h10.5Z"/>
  <g id="Group_869">
    <g id="Group_868">
      <path id="Path_454" class="st0" d="M21.1,32.1h-2V0h17c7,0,12.7,5.7,12.7,12.7s-5.7,12.7-12.7,12.7h-4.3c-1.1,2.9-4.3,6.7-10.8,6.7ZM22.9,3.8v24.4c1.8-.2,3.4-1.1,4.5-2.5.6-.7,1-1.6,1.2-2.5l.3-1.6h7.3c4.9,0,8.9-4.1,8.8-9,0-4.9-4-8.8-8.8-8.8h-13.3Z"/>
    </g>
  </g>
</svg>