<svg id="Logo_LPL_Yellow" xmlns="http://www.w3.org/2000/svg" width="152.562" height="69.58" viewBox="0 0 152.562 69.58">
  <g id="Group_867" data-name="Group 867" transform="translate(70.778 0)">
    <g id="Group_866" data-name="Group 866" transform="translate(0 0)">
      <path id="Path_433" data-name="Path 433" d="M880.833,396.931V379.813h3.179v14.061h8.07v3.057Z" transform="translate(-880.833 -379.813)" fill="#f0c148"/>
      <path id="Path_434" data-name="Path 434" d="M939.4,401.946a6.619,6.619,0,0,1,9.121,0,6.936,6.936,0,0,1,0,9.317,6.62,6.62,0,0,1-9.121,0,6.936,6.936,0,0,1,0-9.317Zm2.213,7.3a3.2,3.2,0,0,0,4.7,0,4.134,4.134,0,0,0,0-5.282,3.2,3.2,0,0,0-4.7,0,4.134,4.134,0,0,0,0,5.282Z" transform="translate(-925.297 -395.722)" fill="#f0c148"/>
      <path id="Path_435" data-name="Path 435" d="M1006.235,412.84V400.368h2.813l.245,1.223h.122a3.791,3.791,0,0,1,.831-.734,4.954,4.954,0,0,1,6.1.721,5.3,5.3,0,0,1,1.382,3.8v7.459h-3.057v-7.214a2.691,2.691,0,1,0-5.38,0v7.214Z" transform="translate(-979.056 -395.722)" fill="#f0c148"/>
      <path id="Path_436" data-name="Path 436" d="M1078.549,396.931l-.245-1.345h-.122a3.781,3.781,0,0,1-.88.807,4.907,4.907,0,0,1-2.788.783,5.335,5.335,0,0,1-4.1-1.8,7.468,7.468,0,0,1,0-9.366,5.335,5.335,0,0,1,4.1-1.8,4.782,4.782,0,0,1,2.69.807,3.616,3.616,0,0,1,.856.783h.122v-5.992h3.057v17.118ZM1072.7,393.4a3.218,3.218,0,0,0,4.6,0,4.588,4.588,0,0,0,0-5.4,3.218,3.218,0,0,0-4.6,0,4.586,4.586,0,0,0,0,5.4Z" transform="translate(-1028.036 -379.813)" fill="#f0c148"/>
      <path id="Path_437" data-name="Path 437" d="M1138.32,401.946a6.619,6.619,0,0,1,9.121,0,6.935,6.935,0,0,1,0,9.317,6.62,6.62,0,0,1-9.121,0,6.936,6.936,0,0,1,0-9.317Zm2.213,7.3a3.2,3.2,0,0,0,4.7,0,4.134,4.134,0,0,0,0-5.282,3.2,3.2,0,0,0-4.7,0,4.134,4.134,0,0,0,0,5.282Z" transform="translate(-1081.107 -395.722)" fill="#f0c148"/>
      <path id="Path_438" data-name="Path 438" d="M1205.159,412.84V400.368h2.813l.245,1.223h.122a3.786,3.786,0,0,1,.831-.734,4.954,4.954,0,0,1,6.1.721,5.3,5.3,0,0,1,1.382,3.8v7.459H1213.6v-7.214a2.691,2.691,0,1,0-5.38,0v7.214Z" transform="translate(-1134.868 -395.722)" fill="#f0c148"/>
      <path id="Path_439" data-name="Path 439" d="M880.833,506.429V489.311h7.7a5.12,5.12,0,0,1,3.9,1.565,6.65,6.65,0,0,1,0,8.364,5.119,5.119,0,0,1-3.9,1.565h-4.524v5.625Zm3.179-8.681h4.4a2.156,2.156,0,0,0,1.687-.709,3.4,3.4,0,0,0,0-3.962,2.156,2.156,0,0,0-1.687-.709h-4.4Z" transform="translate(-880.833 -465.58)" fill="#f0c148"/>
      <path id="Path_440" data-name="Path 440" d="M949.718,518.209V510.75h3.057v7.214a2.691,2.691,0,1,0,5.38,0V510.75h3.057v12.472H958.4L958.155,522h-.122a3.806,3.806,0,0,1-.832.734,4.954,4.954,0,0,1-6.1-.721A5.294,5.294,0,0,1,949.718,518.209Z" transform="translate(-934.789 -482.372)" fill="#f0c148"/>
      <path id="Path_441" data-name="Path 441" d="M1015.827,506.429V489.311h3.057V495.3h.122a3.607,3.607,0,0,1,.856-.783,4.706,4.706,0,0,1,2.69-.807,5.336,5.336,0,0,1,4.1,1.8,7.468,7.468,0,0,1,0,9.366,5.335,5.335,0,0,1-4.1,1.8,4.907,4.907,0,0,1-2.788-.782,3.79,3.79,0,0,1-.88-.807h-.122l-.245,1.345Zm3.937-3.534a3.218,3.218,0,0,0,4.6,0,4.586,4.586,0,0,0,0-5.4,3.218,3.218,0,0,0-4.6,0,4.588,4.588,0,0,0,0,5.4Z" transform="translate(-986.57 -465.58)" fill="#f0c148"/>
      <path id="Path_442" data-name="Path 442" d="M1083.775,506.429V489.311h3.057v17.118Z" transform="translate(-1039.791 -465.58)" fill="#f0c148"/>
      <path id="Path_443" data-name="Path 443" d="M1110.473,491.118v-2.935h3.3v2.935Zm.122,14.428V493.074h3.057v12.472Z" transform="translate(-1060.703 -464.696)" fill="#f0c148"/>
      <path id="Path_444" data-name="Path 444" d="M1143.991,517.691h3.057a6.868,6.868,0,0,1-.55,1.614,7.279,7.279,0,0,1-1.039,1.553,4.75,4.75,0,0,1-1.773,1.247,6.308,6.308,0,0,1-2.507.477,6.136,6.136,0,0,1-4.561-1.822,6.937,6.937,0,0,1,0-9.317,6.137,6.137,0,0,1,4.561-1.822,6.306,6.306,0,0,1,2.507.477,4.824,4.824,0,0,1,1.773,1.235,7.311,7.311,0,0,1,1.039,1.516,6.592,6.592,0,0,1,.55,1.541h-3.057a2.769,2.769,0,0,0-2.812-1.956,3.078,3.078,0,0,0-2.348,1.027,4.133,4.133,0,0,0,0,5.282,3.078,3.078,0,0,0,2.348,1.027A2.71,2.71,0,0,0,1143.991,517.691Z" transform="translate(-1079.774 -481.488)" fill="#f0c148"/>
      <path id="Path_445" data-name="Path 445" d="M880.833,615.926V598.808h3.179v14.061h8.07v3.057Z" transform="translate(-880.833 -551.345)" fill="#f0c148"/>
      <path id="Path_446" data-name="Path 446" d="M941.876,600.614V597.68h3.3v2.935ZM942,615.043V602.571h3.057v12.472Z" transform="translate(-928.646 -550.462)" fill="#f0c148"/>
      <path id="Path_447" data-name="Path 447" d="M969.688,615.926V598.808h3.057V604.8h.122a3.612,3.612,0,0,1,.856-.782,4.706,4.706,0,0,1,2.69-.807,5.337,5.337,0,0,1,4.1,1.8,7.469,7.469,0,0,1,0,9.366,5.336,5.336,0,0,1-4.1,1.8,4.907,4.907,0,0,1-2.788-.782,3.783,3.783,0,0,1-.88-.807h-.122l-.245,1.345Zm3.937-3.534a3.218,3.218,0,0,0,4.6,0,4.586,4.586,0,0,0,0-5.4,3.218,3.218,0,0,0-4.6,0,4.588,4.588,0,0,0,0,5.4Z" transform="translate(-950.43 -551.345)" fill="#f0c148"/>
      <path id="Path_448" data-name="Path 448" d="M1037.253,632.718V620.246h2.568l.244,1.1h.122a2.811,2.811,0,0,1,.538-.538,2.73,2.73,0,0,1,1.663-.563h2.445v2.935h-2.2a2.054,2.054,0,0,0-2.323,2.323v7.214Z" transform="translate(-1003.352 -568.137)" fill="#f0c148"/>
      <path id="Path_449" data-name="Path 449" d="M1084.843,631.834l-.245-1.223h-.122a3.538,3.538,0,0,1-.856.734,4.969,4.969,0,0,1-2.69.734,4.76,4.76,0,0,1-3.289-1.1,3.468,3.468,0,0,1-1.235-2.69,3.779,3.779,0,0,1,1.32-3.032,5.731,5.731,0,0,1,3.815-1.125h2.812v-.244a2.361,2.361,0,0,0-.6-1.687,2.1,2.1,0,0,0-1.6-.636,2.278,2.278,0,0,0-1.528.489,1.82,1.82,0,0,0-.672,1.1H1076.9a4.464,4.464,0,0,1,1.565-2.861,5.426,5.426,0,0,1,3.693-1.174,5.324,5.324,0,0,1,3.8,1.37,4.481,4.481,0,0,1,1.455,3.4v7.948Zm-.489-5.013v-.367h-2.568q-2.323,0-2.323,1.59a1.432,1.432,0,0,0,.514,1.161,2.191,2.191,0,0,0,1.443.428,2.981,2.981,0,0,0,2.164-.746A2.74,2.74,0,0,0,1084.354,626.821Z" transform="translate(-1034.019 -567.253)" fill="#f0c148"/>
      <path id="Path_450" data-name="Path 450" d="M1137.335,632.718V620.246h2.568l.245,1.1h.122a2.816,2.816,0,0,1,.538-.538,2.729,2.729,0,0,1,1.663-.563h2.445v2.935h-2.2a2.053,2.053,0,0,0-2.323,2.323v7.214Z" transform="translate(-1081.743 -568.137)" fill="#f0c148"/>
      <path id="Path_451" data-name="Path 451" d="M1179.535,637.609V634.8h2.445a.867.867,0,0,0,.929-.611l.22-.612-5.062-13.328h3.179l3.179,8.437h.489l2.935-8.437h3.179l-5.258,14.917a3.75,3.75,0,0,1-1.235,1.9,4.24,4.24,0,0,1-2.433.55Z" transform="translate(-1113.648 -568.137)" fill="#f0c148"/>
    </g>
  </g>
  <path id="Path_452" data-name="Path 452" d="M736.288,569.985v13.342H711.273v-32.52h13.543v19.178Z" transform="translate(-677.245 -513.747)" fill="#f0c148"/>
  <path id="Path_453" data-name="Path 453" d="M579.279,508.426v13.342H554.264v-32.52h13.543v19.178Z" transform="translate(-554.264 -465.53)" fill="#f0c148"/>
  <g id="Group_869" data-name="Group 869" transform="translate(20.922 0.069)">
    <g id="Group_868" data-name="Group 868" transform="translate(0 0)">
      <path id="Path_454" data-name="Path 454" d="M652.935,415.24h-.089l-2.049-.01v-35.1h18.632a13.883,13.883,0,0,1,0,27.767h-4.7C663.489,411.091,660.053,415.24,652.935,415.24Zm1.98-30.992v26.724a7.48,7.48,0,0,0,4.892-2.718,7.159,7.159,0,0,0,1.347-2.758l.289-1.717h7.986a9.766,9.766,0,0,0,0-19.531Z" transform="translate(-650.797 -380.13)" fill="#f0c148"/>
    </g>
  </g>
</svg>
