<?xml version="1.0" encoding="UTF-8"?>
<svg id="Large_Logo" xmlns="http://www.w3.org/2000/svg" version="1.1" viewBox="0 0 53.9 63.5">
  <!-- Generator: Adobe Illustrator 29.3.1, SVG Export Plug-In . SVG Version: 2.1.0 Build 151)  -->
  <defs>
    <style>
      .st0 {
        fill: #10214d;
      }
    </style>
  </defs>
  <path id="Path_452" class="st0" d="M53.9,51.3v12.2h-22.8v-29.7h12.4v17.5h10.5Z"/>
  <path id="Path_453" class="st0" d="M22.8,39.1v12.2H0v-29.7h12.4v17.5h10.5Z"/>
  <g id="Group_869">
    <g id="Group_868">
      <path id="Path_454" class="st0" d="M21.1,32.1h-2V0h17c7,0,12.7,5.7,12.7,12.7s-5.7,12.7-12.7,12.7h-4.3c-1.1,2.9-4.3,6.7-10.8,6.7ZM22.9,3.8v24.4c1.8-.2,3.4-1.1,4.5-2.5.6-.7,1-1.6,1.2-2.5l.3-1.6h7.3c4.9,0,8.9-4.1,8.8-9,0-4.9-4-8.8-8.8-8.8h-13.3Z"/>
    </g>
  </g>
</svg>