<?xml version="1.0" encoding="UTF-8"?>
<svg id="Logo_LPL_Yellow" xmlns="http://www.w3.org/2000/svg" version="1.1" viewBox="0 0 59 69.5">
  <!-- Generator: Adobe Illustrator 29.3.1, SVG Export Plug-In . SVG Version: 2.1.0 Build 151)  -->
  <defs>
    <style>
      .st0 {
        fill: #f0c148;
      }
    </style>
  </defs>
  <path id="Path_452" class="st0" d="M59,56.2v13.3h-25v-32.5h13.5v19.2h11.5Z"/>
  <path id="Path_453" class="st0" d="M25,42.8v13.3H0V23.6h13.5v19.2h11.5Z"/>
  <g id="Group_869">
    <g id="Group_868">
      <path id="Path_454" class="st0" d="M23.1,35.1h-2.1V0h18.6c7.7,0,13.9,6.2,13.9,13.9s-6.2,13.9-13.9,13.9h-4.7c-1.2,3.2-4.7,7.3-11.8,7.3ZM25,4.1v26.7c1.9-.2,3.7-1.2,4.9-2.7.6-.8,1.1-1.8,1.3-2.8l.3-1.7h8c5.4,0,9.7-4.5,9.7-9.9,0-5.3-4.4-9.6-9.7-9.7h-14.5Z"/>
    </g>
  </g>
</svg>